<svg height="150" viewBox="0 0 150 150" width="150" xmlns="http://www.w3.org/2000/svg" xmlns:xlink="http://www.w3.org/1999/xlink"><defs><circle id="a" cx="75" cy="75" r="75"/><mask id="b" fill="#fff"><use fill="#fff" fill-rule="evenodd" xlink:href="#a"/></mask><mask id="c" fill="#fff"><path d="m.415.366h45.6v54.59h-45.601z" fill="#fff" fill-rule="evenodd"/></mask></defs><g fill="none" fill-rule="evenodd"><use fill="#f8f7ff" xlink:href="#a"/><g mask="url(#b)"><path d="m116.89 52.717s-1.228 8.936-1.005 10.388c.224 1.452-18.54 6.925-18.54 6.925l-.67-7.037 5.919-9.605 14.297-.67z" fill="#fe9479"/><path d="m143.011 84.417s-8.599-16.338-10.032-18.058-7.891-5.924-11.876-5.16c-3.985.765-36.28 13.09-39.337 15.097-3.057 2.006-11.637 7.195-12.592 21.719-.956 14.522-1.644 39.283-1.644 39.283s-19.89-13.65-20.413-13.998c-.521-.348-2.434 2-4.695 4.52-2.26 2.522-3.043 5.653-3.043 5.653l20.52 22.345s24.643 16.938 30.555.158c5.912-16.781 15.94-50.933 15.94-50.933z" fill="#7000ff"/><path d="m89.668 38.81s-2.19 4.175-2.113 4.875c.078.7.882 1.608 1.4 1.115.519-.492.713-5.99.713-5.99" fill="#ff395a"/><path d="m89.553 40.984c0 2.185-.448 3.956-1 3.956s-1-1.77-1-3.956c0-2.185.448-3.956 1-3.956s1 1.771 1 3.956z" stroke="#fff" stroke-width=".5"/><path d="m89.553 40.984c0 2.185-.5 3.956-1.119 3.956-.618 0-1.118-1.77-1.118-3.956 0-2.185.5-3.956 1.118-3.956s1.119 1.771 1.119 3.956" fill="#fff"/><path d="m89.553 40.984c0 2.185-.5 3.956-1.119 3.956-.618 0-1.118-1.77-1.118-3.956 0-2.185.5-3.956 1.118-3.956s1.119 1.771 1.119 3.956z" stroke="#fff" stroke-width=".5"/><path d="m90.688 30.694-1.586 12.624s3.238 2.842 3.635 4.363c.396 1.52 2.974 1.454 3.173 0 .198-1.455 5.882-12.36 5.684-13.88s-.803-1.763-1.067-3.086c-.264-1.322-1.313-2.334-1.313-2.334s-7.8-.132-8.526 2.313" fill="#fe9479"/><path d="m7.951 11.57c.428 2.746 1.23 5.132 7.964 4.705 5.3-.336 6.112.974 6.25 1.706.197 1.047.317 1.983.317 1.983s-5.627 14.262-6.143 14.391c-.517.13-1.928-.189-2.944-2.068-1.015-1.88-3.064-3.268-3.064-3.268s-3.065 5.797-4.95 7.697c-4.057 4.091-6.552 6.184-3.815 11.681 2.445 4.911 7.56 6.856 10.316 6.523 4.348-.525 6.021-1.273 9.156-6.667 4.607-7.926 3.37-7.601 3.768-7.469.396.132 11.818 2.413 12.88.793 4.425-6.744 5.152-9.348 6.417-13.315.809-2.534 3.601-5.95.439-15.873-1.088-3.411-2.824-9.19-12.07-9.411-5.483-.132-6.476-.122-6.476-.122s-4.67-1.553-6.874-1.927c-9.282-1.577-12.885-.382-11.17 10.64" fill="#140012" mask="url(#c)" transform="translate(78.771 14.299)"/><path d="m101.143 40.06s3.83-2.253 4.154.402c.324 2.654-.594 5.244-2.86 4.92-2.265-.324-1.294-5.322-1.294-5.322" fill="#fe9479"/><path d="m101.253 39.763-13.7.826" stroke="#fff" stroke-width=".5"/><path d="m24.32 118.77s2.697 6.572 6.461 4.55c3.764-2.023-6.461-4.55-6.461-4.55" fill="#f28657"/><path d="m-12.15 62.532 2.382 15.083h32.99l-3.135-15.083z" fill="#fc5155"/><path d="m85.946 173.784 21.874-84.734s1.682-6.03 9.394-5.61c7.712.422 59.592.702 59.592.702s9.394 1.823 7.29 10.095c-2.103 8.273-20.891 79.547-20.891 79.547h-77.26z" fill="#fcfefd"/><path d="m21.692 62.532 3.445 15.083h31.93l-3.137-15.083z" stroke="#fc5155" stroke-dasharray="2.599" stroke-width=".5"/><path d="m15.403 87.467 2.383 15.083h16.872l-3.136-15.083z" fill="#fc5155"/><path d="m25.775 82.931 3.446 15.083h15.81l-3.137-15.083z" stroke="#fc5155" stroke-dasharray="2.599" stroke-width=".5"/><path d="m24.5 119.324c.605 1.116 4.35 1.71 4.564 2.064s2.453 4.628 2.655 5.277c.202.648 4.095 4.227 4.45 4.328.185.053 1.599-3.027 3.415-5.575 1.645-2.306 3.693-4.107 4.107-4.03 0 0-1.38-1.236-2.544-3.271-1.162-2.035-3.342-7.195-4.723-9.23s-6.541-8.65-8.214-9.448c-1.67-.8-3.89.51-2.36 2.586 2.066 2.805 3.413 3.764 4.905 6.498.287.527-.568.217-1.083.262-.44.038-1.71.377-2.352 1.234-.644.857-.816 1.883-1.196 2.745-.205.466-.444.903-.608 1.57-.355 1.445-.474 1.484-.658 2.13 0 0-.916 1.829-.357 2.86" fill="#fe9479"/><path d="m47.117 123.3-3.899-2.384s-3.325 2.854-4.458 4.605-2.591 5.472-2.591 5.472l3.21 2.48s2.677-3.729 4.016-5.531c1.34-1.803 3.722-4.642 3.722-4.642" fill="#fcfefd"/><path d="m96.674 70.035-.24-2.827 19.609-7.4.415 3.4z" fill="#310091"/><path d="m92.135 35.412s-.43-.91-2.333-1.066" stroke="#140012" stroke-linecap="round" stroke-width=".745"/></g></g></svg>