<svg xmlns="http://www.w3.org/2000/svg" width="41.159" height="42.458" viewBox="0 0 41.159 42.458">
  <g id="GlkHd2.tif" transform="translate(296 -207)">
    <g id="Group_248" data-name="Group 248" transform="translate(-296 207)">
      <path id="Path_532" data-name="Path 532" d="M2531.269-727.479c1.54-.246,2.975-.464,4.4-.715a.513.513,0,0,1,.615.285,22.254,22.254,0,0,1,2.938,7.284.577.577,0,0,1-.25.692c-1.127.829-2.233,1.688-3.36,2.517a.677.677,0,0,0-.33.69,2.193,2.193,0,0,1,.021.728,1.364,1.364,0,0,0,.749,1.563c1,.685,1.94,1.453,2.917,2.167a.581.581,0,0,1,.254.694,22.277,22.277,0,0,1-2.908,7.242.6.6,0,0,1-.705.322c-1.364-.237-2.731-.46-4.1-.655a1.272,1.272,0,0,0-.607.2c-.085.039-.13.165-.214.218a2.116,2.116,0,0,0-.786,2.6c.237.993.318,2.025.488,3.036a.589.589,0,0,1-.281.689,20.773,20.773,0,0,1-7.117,3.032.485.485,0,0,1-.584-.244c-.811-1.158-1.644-2.3-2.44-3.465a.7.7,0,0,0-.757-.362,1.212,1.212,0,0,1-.453.019c-.877-.215-1.381.222-1.833.949-.609.98-1.325,1.89-1.982,2.839a.514.514,0,0,1-.625.261,21,21,0,0,1-7.114-3.043.541.541,0,0,1-.265-.639c.232-1.406.433-2.818.645-4.227.005-.034.01-.069.014-.1.062-.52-1.291-1.853-1.791-1.771-1.367.223-2.735.431-4.1.668a.59.59,0,0,1-.7-.333,22.789,22.789,0,0,1-2.882-7.144.7.7,0,0,1,.332-.851c1.089-.793,2.151-1.626,3.24-2.423a.687.687,0,0,0,.338-.736.954.954,0,0,1-.011-.364,1.9,1.9,0,0,0-1.092-2.173c-.885-.572-1.693-1.269-2.554-1.883a.605.605,0,0,1-.258-.737,22.274,22.274,0,0,1,2.915-7.239.544.544,0,0,1,.656-.3q2.07.363,4.152.653a1.075,1.075,0,0,0,.6-.216c.14-.083.216-.281.354-.367.866-.534.844-1.313.666-2.2-.222-1.106-.341-2.233-.537-3.345a.5.5,0,0,1,.263-.588,20.846,20.846,0,0,1,7.11-3.049.517.517,0,0,1,.632.249c.805,1.161,1.636,2.3,2.44,3.465a.631.631,0,0,0,.669.34.94.94,0,0,1,.354-.01c1.059.246,1.656-.316,2.18-1.185.551-.914,1.226-1.749,1.831-2.629a.486.486,0,0,1,.59-.239,21.266,21.266,0,0,1,7.076,3.007.62.62,0,0,1,.315.722c-.23,1.406-.445,2.816-.635,4.228a.93.93,0,0,0,.189.629,11.865,11.865,0,0,0,1,1.04A1.439,1.439,0,0,0,2531.269-727.479Zm-3.621,11.379a9.177,9.177,0,0,0-9.055-9.328,9.194,9.194,0,0,0-8.971,9.2,9.184,9.184,0,0,0,9,9.382A9.187,9.187,0,0,0,2527.648-716.1Z" transform="translate(-2498.094 737.329)" fill="#fff"/>
    </g>
  </g>
</svg>
