<?xml version="1.0" encoding="iso-8859-1"?>
<!-- Generator: Adobe Illustrator 19.0.0, SVG Export Plug-In . SVG Version: 6.00 Build 0)  -->
<svg fill="white" version="1.1" id="Capa_1" xmlns="http://www.w3.org/2000/svg" xmlns:xlink="http://www.w3.org/1999/xlink" x="0px" y="0px"
	 viewBox="0 0 509.257 509.257" style="enable-background:new 0 0 509.257 509.257;" xml:space="preserve">
<g>
	<g>
		<g>
			<path d="M372.389,0l-84.48,70.4h20.48c5.043,0.015,9.128,4.1,9.143,9.143v192c0.015,5.043,4.1,9.128,9.143,9.143h91.429
				c5.043-0.015,9.128-4.1,9.143-9.143v-192c0.015-5.043,4.1-9.128,9.143-9.143h20.48L372.389,0z"/>
			<path d="M299.246,271.543V88.686h-36.571c-3.856,0.02-7.303-2.401-8.594-6.034c-1.284-3.624-0.192-7.665,2.743-10.149l2.56-2.103
				H61.531c-5.043,0.015-9.128,4.1-9.143,9.143v420.571c0.015,5.043,4.1,9.128,9.143,9.143h192V408.686
				c0.044-15.13,12.299-27.384,27.429-27.429h100.571v-82.286h-54.857C311.544,298.927,299.29,286.673,299.246,271.543z
				 M216.96,436.114H98.103c-5.049,0-9.143-4.093-9.143-9.143s4.093-9.143,9.143-9.143H216.96c5.049,0,9.143,4.093,9.143,9.143
				S222.009,436.114,216.96,436.114z M216.96,390.4H98.103c-5.049,0-9.143-4.093-9.143-9.143c0-5.049,4.093-9.143,9.143-9.143
				H216.96c5.049,0,9.143,4.093,9.143,9.143C226.103,386.307,222.009,390.4,216.96,390.4z M271.817,344.686H98.103
				c-5.049,0-9.143-4.093-9.143-9.143c0-5.049,4.093-9.143,9.143-9.143h173.714c5.049,0,9.143,4.093,9.143,9.143
				C280.96,340.592,276.867,344.686,271.817,344.686z M271.817,298.971H98.103c-5.049,0-9.143-4.093-9.143-9.143
				c0-5.049,4.093-9.143,9.143-9.143h173.714c5.049,0,9.143,4.093,9.143,9.143C280.96,294.878,276.867,298.971,271.817,298.971z
				 M271.817,253.257H98.103c-5.049,0-9.143-4.093-9.143-9.143c0-5.049,4.093-9.143,9.143-9.143h173.714
				c5.049,0,9.143,4.093,9.143,9.143C280.96,249.164,276.867,253.257,271.817,253.257z"/>
			<path d="M271.817,408.686v87.68l96.823-96.823h-87.68C275.917,399.558,271.832,403.643,271.817,408.686z"/>
		</g>
	</g>
</g>
<g>
</g>
<g>
</g>
<g>
</g>
<g>
</g>
<g>
</g>
<g>
</g>
<g>
</g>
<g>
</g>
<g>
</g>
<g>
</g>
<g>
</g>
<g>
</g>
<g>
</g>
<g>
</g>
<g>
</g>
</svg>
